<svg width="176" height="176" viewBox="0 0 176 176" fill="none" xmlns="http://www.w3.org/2000/svg" role="img" aria-labelledby="title desc">
  <title id="title">BroCode Bracket Static logo</title>
  <desc id="desc">A cute coding helper face with bracket symbols.</desc>
  <defs>
    <linearGradient id="face" x1="54" y1="42" x2="122" y2="126" gradientUnits="userSpaceOnUse">
      <stop offset="0" stop-color="#FFF7D6"/>
      <stop offset="1" stop-color="#F4C95D"/>
    </linearGradient>
    <filter id="shadow" x="-20" y="-20" width="216" height="216" color-interpolation-filters="sRGB" filterUnits="userSpaceOnUse">
      <feDropShadow dx="0" dy="14" stdDeviation="14" flood-color="#000000" flood-opacity="0.34"/>
    </filter>
  </defs>
  <g filter="url(#shadow)" transform="translate(88 88) scale(1.5) translate(-88 -88)">
    <g>
      <path d="M88 34L96 56L118 64L96 72L88 94L80 72L58 64L80 56L88 34Z" fill="#7DD3FC"/>
    </g>
    <g>
      <path d="M54 78C54 63.64 65.64 52 80 52H96C110.36 52 122 63.64 122 78V94C122 108.36 110.36 120 96 120H80C65.64 120 54 108.36 54 94V78Z" fill="url(#face)" stroke="#050506" stroke-width="7"/>
      <g>
        <g>
          <circle cx="78" cy="82" r="5" fill="#050506"/>
          <circle cx="98" cy="82" r="5" fill="#050506"/>
        </g>
        <path d="M78 97C83 103 93 103 98 97" stroke="#050506" stroke-width="6" stroke-linecap="round"/>
      </g>
    </g>
    <path d="M46 100L34 106L46 112" stroke="#86EFAC" stroke-width="8" stroke-linecap="round" stroke-linejoin="round"/>
    <path d="M130 100L142 106L130 112" stroke="#86EFAC" stroke-width="8" stroke-linecap="round" stroke-linejoin="round"/>
  </g>
</svg>
